<svg id="Door" xmlns="http://www.w3.org/2000/svg" width="702" height="1240" viewBox="0 0 351 620">
  <defs>
    <style>
      .cls-1, .cls-3 {
        fill: #f7bc00;
      }

      .cls-1 {
        stroke: #f79200;
        stroke-width: 5px;
      }

      .cls-1, .cls-2, .cls-3, .cls-4, .cls-5 {
        fill-rule: evenodd;
      }

      .cls-2, .cls-5 {
        fill: #f79200;
      }

      .cls-2 {
        opacity: 0.7;
      }

      .cls-4 {
        fill: #ec3d2b;
      }
    </style>
  </defs>
  <path class="cls-1" d="M48.005,41.014V620H311V41.014h-263Z"/>
  <g>
    <path class="cls-2" d="M78.8,60.581h82.5v285H78.8v-285Z"/>
    <path class="cls-3" d="M90.3,73.581h59.5v261H90.3v-261"/>
  </g>
  <g id="Group_1_copy" data-name="Group 1 copy">
    <path class="cls-2" d="M191.987,60.581h82.5v285h-82.5v-285Z"/>
    <path class="cls-3" d="M203.487,73.581h59.5v261h-59.5v-261"/>
  </g>
  <g id="Group_1_copy_2" data-name="Group 1 copy 2">
    <path class="cls-2" d="M78.8,400.991h82.5v195L80,596Z"/>
    <path class="cls-3" d="M90.3,409.886h59.5L149,584H91L90.3,409.886"/>
  </g>
  <g id="Group_1_copy_3" data-name="Group 1 copy 3">
    <path class="cls-2" d="M190.987,400.991h82.5v195l-81.3.009Z"/>
    <path class="cls-3" d="M202.487,409.886h59.5L261.188,584h-58l-0.7-174.114"/>
  </g>
  <g id="Letters">
    <path class="cls-4" d="M71,397V361l-3-2s1.136-2.145,6-3,16.707-1.86,18,1,2.136,8.569,1,10-6,5-6,5,9.564,11.14,10,15,0.421,6-1,6-4.579,1-5-1-5.579-14.86-8-16a11.672,11.672,0,0,0-5-1,5.553,5.553,0,0,0-2,4c0.007,2.431-.864,13.426-1,16a38.445,38.445,0,0,1-1,6s1.136,0-1-2-2-2-2-2h0Zm5-37v9h8s4.564-5.145,5-6,0.564-3.717-2-4a37.352,37.352,0,0,0-7,0A40.274,40.274,0,0,0,76,360Zm29-2c0.924,0.106,25,0,25,0s-0.674,1.894-2,2-19,1-19,1v5s-0.174,4.31,1,5,11.576-.856,13,0a5.535,5.535,0,0,1,2,2s0.493,1.06-2,1-12,0-12,0-1.007,9.144,0,10,8.91-1.023,10-1,6.743,0.227,8,1-0.174,1.477-2,2-14.09,2.81-15,3-4.34,4.31-6-9S104.076,357.894,105,358Z"/>
    <path class="cls-4" d="M156,359s-8.924-2.606-12-1-7.424,6.81-8,9-1.09,10.56,0,12,4.243,5.06,7,6,7.91,4.56,9,3,1.576-5.523,2-9S156,359,156,359Zm-4,2s-9.84.06-11,5-1.007,6.977,0,9,4.66,5.977,7,6,2.326,3.227,3-7S152,361,152,361Z"/>
    <path class="cls-4" d="M167,361s4.243-4.19,8-4,5.692,0.029,7,5c2.27,8.626,8.691,27.875,7,26-1.193-1.323.493,6.977-3,0s-6-11-6-11a9,9,0,0,0-5,3c-2.076,2.523-5.674,6.477-7,10s-3,3-3,3-2.007.06,0-5,3.076-4.523,5-8,2-5,2-5,1.826,1.477-2-1-6.09-1.44-6-5-0.174-4.273,1-6A4.936,4.936,0,0,1,167,361Zm2,3s1.16-2.523,3-3,4.243-.94,5,0,3.66,7.06,3,9-3.757,2.977-6,2-5.924-3.69-6-5A6.389,6.389,0,0,1,169,364Z"/>
    <path class="cls-4" d="M199,360s1.885,12.06,4,15,1.551,4.394,4,5,9.3,1.727,7-8-2.2-14.606-2-16,2.3-1.94,5,4,4.968,15.56,2,19-4.7,5.977-7,6-9.2,2.56-12-3a27.972,27.972,0,0,1-3-14c0.032-4.06.385-6.356,1-8S199,360,199,360Z"/>
    <path class="cls-4" d="M219,387s15.218-29.44,17-30,2.635-1.94,3,4,0.551,12.31,1,13,12.885-14.273,14-16,0.8,3.144,2,8,2.218,11.644,4,16,2.218,4.977,3,6-2,2-2,2-5.7-4.523-7-11a39.522,39.522,0,0,1-1-10s-6.782,7.144-9,9a7.952,7.952,0,0,1-4,2,10.63,10.63,0,0,1-4-8c-0.3-5.477-1.365-4.273-7,6s-7,11-7,11-1.449.81-2,0A11.44,11.44,0,0,1,219,387Z"/>
  </g>
  <g id="Handle">
    <path class="cls-3" d="M280,341h20v69H279Z"/>
    <path class="cls-5" d="M290,352s4.9-1.054,6,1,2.53,15.446,2,17-3.22,9.071-7,7-7.1-3.8-7-11,0.28-8.929,2-11A11.439,11.439,0,0,1,290,352Z"/>
    <path class="cls-3" d="M290,356a19.1,19.1,0,0,0-2,9c0.137,5.179.613,7.321,2,8s2.78,1.4,4,0,2.03-6.012,2-9-0.137-4.929-1-6-1.554-3.679-3-3S290,356,290,356Z"/>
    <path class="cls-5" d="M291,395h4a35.056,35.056,0,0,1-1-4,3.188,3.188,0,0,1,0-2c0.286-1.207,1.714-1.364,1-3s-3-2-3-2a6.8,6.8,0,0,0-2,2,5,5,0,0,0,0,3l1,1v5Z"/>
  </g>
</svg>
